# xmcd
#
# Track frame offsets: 
#        150
#        19637
#        37862
#        51125
#        66800
#        80675
#        95500
#        108500
#        124775
#        139400
#        154100
#        171587
#        185700
#        202687
#        219100
#        235200
#        252575
#        270725
#        289100
#        303950
#        317475
#
# Disc length: 4429 seconds
#
# Revision: 2
# Processed by: cddbd v1.5.2PL0 Copyright (c) Steve Scherf et al.
# Submitted via: ExactAudioCopy v0.99pb5
#
DISCID=2b114b15
DTITLE=Lobo - Still In Love
DYEAR=1900
DGENRE=
TTITLE0=How Can I Tell Her
TTITLE1=I'd Love You To Want Me
TTITLE2=Me and You and a Dog Named Boo
TTITLE3=Rings
TTITLE4=A Simple Man
TTITLE5=I'm The Only One
TTITLE6=Shed Didn't Do Magic
TTITLE7=Don't Expect Me TO Be Your Friend
TTITLE8=It Sure Took A Long, Long Time
TTITLE9=There Ain't No Way
TTITLE10=Standing At The End Of the Line
TTITLE11=Don't Tell Me Good Night
TTITLE12=Stoney
TTITLE13=Good Bye Is Just Another Word
TTITLE14=Daydream Believer
TTITLE15=Rock N' Roll Days
TTITLE16=Love Me For What I Am
TTITLE17=One and The Same Thing
TTITLE18=Universal Soldier
TTITLE19=A Little Different
TTITLE20=Some Thing To See Me Through
EXTD=
EXTT0=
EXTT1=
EXTT2=
EXTT3=
EXTT4=
EXTT5=
EXTT6=
EXTT7=
EXTT8=
EXTT9=
EXTT10=
EXTT11=
EXTT12=
EXTT13=
EXTT14=
EXTT15=
EXTT16=
EXTT17=
EXTT18=
EXTT19=
EXTT20=
PLAYORDER=
